<?xml version="1.0" standalone="no"?>
<!DOCTYPE svg PUBLIC "-//W3C//DTD SVG 20010904//EN"
 "http://www.w3.org/TR/2001/REC-SVG-20010904/DTD/svg10.dtd">
<svg version="1.0" xmlns="http://www.w3.org/2000/svg"
 width="500.000000pt" height="500.000000pt" viewBox="0 0 500.000000 500.000000"
 preserveAspectRatio="xMidYMid meet">

<g transform="translate(0.000000,500.000000) scale(0.100000,-0.100000)"
fill="#ffffff" stroke="none">
<path d="M2164 4739 c-43 -23 -153 -85 -244 -137 -91 -53 -226 -128 -300 -167
-74 -39 -173 -96 -220 -127 -47 -30 -209 -126 -360 -213 -151 -87 -300 -175
-331 -196 -94 -63 -183 -169 -239 -283 -83 -168 -80 -128 -80 -1125 0 -844 1
-881 20 -957 40 -158 141 -315 265 -413 48 -37 173 -111 720 -426 132 -76 314
-181 405 -233 91 -52 215 -124 275 -158 173 -100 263 -125 430 -125 194 0 247
20 620 236 121 70 297 171 390 225 792 456 785 452 785 463 0 5 -45 74 -101
153 -71 103 -104 142 -112 136 -7 -6 -142 -85 -302 -177 -159 -92 -335 -193
-390 -225 -397 -231 -708 -407 -755 -427 -65 -27 -180 -31 -251 -10 -25 8
-148 74 -275 146 -126 73 -305 177 -399 231 -753 433 -800 461 -831 488 -46
39 -95 117 -114 180 -20 66 -20 87 -18 923 l3 855 38 76 c47 95 86 131 248
224 68 39 210 120 314 181 105 60 298 172 430 248 132 76 296 170 365 210 69
40 149 84 177 99 50 25 52 27 42 54 -6 15 -33 88 -60 162 -28 74 -54 139 -58
143 -4 4 -43 -11 -87 -34z"/>
<path d="M1470 3234 c-46 -20 -68 -41 -92 -88 -26 -52 -21 -131 12 -178 12
-18 140 -132 283 -252 206 -174 256 -222 245 -230 -8 -6 -128 -108 -268 -227
-274 -232 -290 -251 -290 -337 0 -126 146 -217 255 -160 57 30 729 607 752
645 26 44 30 116 9 167 -14 35 -54 70 -505 450 -278 235 -308 250 -401 210z"/>
<path d="M2572 2089 c-104 -52 -134 -190 -60 -275 63 -72 43 -69 538 -69 245
0 457 3 472 8 74 20 136 119 125 199 -6 47 -27 79 -81 122 l-38 31 -456 3
c-451 2 -458 2 -500 -19z"/>
</g>
</svg>
